<?xml version="1.0" encoding="utf-8"?>
<!-- Generator: Adobe Illustrator 27.5.0, SVG Export Plug-In . SVG Version: 6.00 Build 0)  -->
<svg version="1.1" xmlns="http://www.w3.org/2000/svg" xmlns:xlink="http://www.w3.org/1999/xlink" x="0px" y="0px"
	 viewBox="0 0 2000 2000" style="enable-background:new 0 0 2000 2000;" xml:space="preserve">
<g id="BG">
	<rect style="fill:#E1F2F9;" width="2000" height="2000"/>
</g>
<g id="People">
	<g>
		<rect x="678.906" y="1398.98" style="fill:#EFE574;" width="512.464" height="497.109"/>
		<rect x="1191.37" y="1398.98" style="fill:#99BAC4;" width="138.193" height="497.109"/>
		<rect x="905.388" y="1510.301" style="fill:#EE5F2B;" width="72.935" height="281.183"/>
		<rect x="1359.312" y="1510.301" style="fill:#EFE574;" width="410.425" height="388.667"/>
		<rect x="1769.737" y="1510.301" style="fill:#99BAC4;" width="110.676" height="388.667"/>
		<rect x="1497.505" y="1612.986" style="fill:#EE5F2B;" width="62.379" height="183.297"/>
		<rect x="1590.593" y="1612.986" style="fill:#EE5F2B;" width="62.379" height="183.297"/>
		<rect x="127.943" y="1647.534" style="fill:#EFE574;" width="410.425" height="251.082"/>
		<rect x="538.368" y="1647.534" style="fill:#99BAC4;" width="110.676" height="251.082"/>
		<rect x="221.143" y="1694.558" style="fill:#EE5F2B;" width="55.833" height="165.063"/>
		<rect x="304.462" y="1694.558" style="fill:#EE5F2B;" width="55.833" height="165.063"/>
		<rect x="389.349" y="1694.739" style="fill:#EE5F2B;" width="55.833" height="165.063"/>
		<rect x="87.749" y="1883.613" style="fill:#4C371C;" width="1837.769" height="55.387"/>
		<g>
			<path style="fill:#4A3218;" d="M1760.919,1369.494c0,0-0.918,22.644,17.305,28.777c5.94,1.999,16.182-0.754,22.125-4.729
				c11.921-7.978,14.524-30.471,17.497-43.338c2.969-12.851,18.815-66.822-3.364-69.23c-11.499-1.248-25.926,3.997-37.147,8.899
				L1760.919,1369.494z"/>
			<path style="fill:#F1BF9E;" d="M1311.93,793.507c0.888-3.466,7.6-4.982,16.927-4.393c-12.872-7.448-20.618-17.259-17.763-23.264
				c2.664-5.602,13.726-6.135,26.487-1.889c-10.942-12.656-15.506-26.409-10.174-31.282c5.47-4.998,19.306,1.214,31.131,13.885
				c-3.961-11.208-3.741-20.802,1.236-23.593c6.563-3.681,18.903,5.853,27.563,21.294c1.938,3.456,3.525,6.914,4.752,10.243
				c5.06-8.39,13.391-12.717,19.573-9.777c6.795,3.231,8.42,14.017,3.63,24.089c-1.572,3.305-3.64,6.118-5.948,8.298
				c6.168,14.357,2.559,31.438-9.927,41.558c-15.109,12.245-37.498,9.666-50.049-5.751c-2.84-0.459-5.808-1.074-8.847-1.852
				C1323.371,806.678,1310.57,798.814,1311.93,793.507z"/>
			<polygon style="fill:#F1BF9E;" points="1409.756,797.616 1424.084,808.422 1392.939,841.474 1375.197,826.336 			"/>
			<path style="fill:#F1BF9E;" d="M1927.82,808.941c-0.365-3.559-6.778-6.052-16.09-6.851c13.833-5.461,22.946-14.017,21.011-20.378
				c-1.806-5.935-12.666-8.099-25.916-5.789c12.694-10.897,19.245-23.822,14.692-29.431c-4.669-5.753-19.273-1.657-32.844,9.123
				c5.577-10.498,6.779-20.019,2.27-23.516c-5.945-4.612-19.561,2.991-30.412,16.98c-2.429,3.131-4.51,6.316-6.215,9.427
				c-3.762-9.046-11.361-14.559-17.91-12.566c-7.198,2.19-10.402,12.616-7.156,23.286c1.065,3.501,2.695,6.589,4.655,9.087
				c-8.226,13.286-7.185,30.713,3.666,42.569c13.13,14.347,35.654,15.11,50.349,1.721c2.877-0.034,5.903-0.202,9.024-0.522
				C1914.556,820.273,1928.379,814.39,1927.82,808.941z"/>
			<polygon style="fill:#F1BF9E;" points="1829.01,803.445 1814.682,814.25 1845.827,847.302 1863.569,832.164 			"/>
			<path style="fill:#4A3218;" d="M1444.151,1423.167c0,0-22.355-3.722-30.703,13.599c-2.721,5.646-1.26,16.151,1.946,22.541
				c6.437,12.819,28.432,18.194,40.831,22.741c12.383,4.541,63.97,26.964,69.112,5.255c2.666-11.255-0.748-26.222-4.219-37.964
				L1444.151,1423.167z"/>
			<path style="fill:#FEB8AE;" d="M1547.089,878.151c0,0-40.975,9.746-67.806,22.152l12.463,171.43c0,0,144.17,18.689,218.421-6.704
				l14.027-171.368c0,0-36.487-11.977-67.806-15.51H1547.089z"/>
			<path style="fill:#80B7CC;" d="M1714.904,1008.134l-24.054-42.121c-5.187-9.083-7.876-19.103-7.852-29.258l0.128-53.407
				l-28.479-5.516l-4.921,36.263c-0.611,4.504-4.373,8.182-9.413,9.229c-13.093,2.722-41.447,6.463-85.41,1.303
				c-6.414-0.753-11.132-5.645-10.954-11.309l1.074-34.215l-30.946,8.894l-22.645,97.483c-0.367,1.582-0.664,3.173-0.897,4.771
				l-20.863,84.36c0,0,28.094,0.856,42.123,0.243h198.595L1714.904,1008.134z"/>
			<polygon style="fill:#80B7CC;" points="1469.674,1074.611 1416.404,1413.906 1537.824,1464.522 1602.109,1068.853 			"/>
			<path style="fill:#80B7CC;" d="M1710.585,1063.176l-4.335,137.814c-0.343,10.909,4.711,21.287,13.511,27.744L1791,1281
				c0,0-29.884,82.08-35,112c-0.778,4.55-72.123-18.403-78-21c-26.841-11.859-53.674-21.675-70-55
				c-17.4-35.519-37.917-66.138-35.641-105.156c1.967-33.73,1.919-60.459,0.96-95.007c-0.869-31.268-0.891-50.347,0.96-81.572
				L1710.585,1063.176z"/>
			<polyline style="fill:#FEB8AE;" points="1512.127,889.889 1423.776,795.817 1378.012,841.582 1486.948,1003.595 			"/>
			<polygon style="fill:#FEB8AE;" points="1713.9,977.445 1857.904,848.574 1819.131,803.445 1683.744,883.533 			"/>
			<path style="fill:#EFE574;" d="M1583.172,1008.946C1576,995,1545.025,879.104,1545.025,879.104s-9.395-1.72-15.21,3.588
				l40.06,132.482"/>
			<path style="fill:#EFE574;" d="M1603.815,1008.946c7.172-13.946,38.147-129.842,38.147-129.842s9.395-1.72,15.21,3.588
				l-40.06,132.482"/>
			<g>
				<circle style="fill:#EA5C15;" cx="1587.521" cy="1050.535" r="46.465"/>
				<circle style="fill:#FF8B3E;" cx="1585.179" cy="1049.596" r="45.341"/>
				<path style="fill:#EFE574;" d="M1618.773,1026.209c-4.83-6.766-11.601-11.953-19.41-14.815
					c-7.99-2.929-16.931-3.227-25.114-0.908c-7.906,2.24-15.101,6.924-20.325,13.27c-5.376,6.531-8.629,14.558-9.28,22.996
					c-0.649,8.417,1.39,16.992,5.765,24.211c4.239,6.995,10.601,12.704,18.063,16.071c7.881,3.557,16.729,4.55,25.206,2.83
					c8.061-1.636,15.566-5.821,21.249-11.761c5.722-5.982,9.603-13.699,10.854-21.892c0.323-2.116,0.501-4.246,0.506-6.386
					C1626.269,1041.411,1623.668,1033.065,1618.773,1026.209z M1616.294,1071.898c-4.332,6.094-10.753,11.003-17.785,13.564
					c-7.574,2.759-15.778,3.065-23.482,0.88c-7.429-2.106-14.018-6.449-18.983-12.456c-4.844-5.861-7.911-13.479-8.48-21.074
					c-0.598-7.974,1.249-15.847,5.372-22.65c3.977-6.563,9.872-11.781,16.939-14.988c7.059-3.203,15.411-4.114,23.026-2.568
					c7.664,1.556,14.578,5.385,19.958,11.008c2.665,2.785,4.815,5.844,6.573,9.366c1.691,3.387,2.893,7.187,3.503,11.071
					c0.274,1.743,0.423,3.838,0.427,5.774C1623.345,1057.734,1620.918,1065.393,1616.294,1071.898z"/>
				<g>
					<path style="fill:#EA5C15;" d="M1602.971,1069.436h-32.197c0.369-3.179,1.489-6.169,3.359-8.971
						c1.871-2.801,5.379-6.108,10.526-9.92c3.144-2.336,5.155-4.11,6.034-5.322c0.878-1.212,1.317-2.362,1.317-3.452
						c0-1.177-0.435-2.182-1.304-3.017c-0.87-0.834-1.963-1.251-3.28-1.251c-1.37,0-2.49,0.431-3.359,1.291
						c-0.87,0.861-1.454,2.38-1.752,4.558l-10.75-0.869c0.422-3.021,1.194-5.379,2.319-7.074c1.124-1.695,2.709-2.995,4.756-3.9
						c2.046-0.904,4.878-1.357,8.497-1.357c3.776,0,6.714,0.431,8.813,1.291c2.099,0.861,3.75,2.183,4.953,3.965
						c1.203,1.783,1.805,3.781,1.805,5.994c0,2.354-0.689,4.602-2.068,6.745c-1.379,2.143-3.886,4.497-7.522,7.061
						c-2.16,1.493-3.606,2.538-4.334,3.135c-0.729,0.597-1.585,1.379-2.569,2.345h16.757V1069.436z"/>
				</g>
				<g>
					<path style="fill:#EFE574;" d="M1599.27,1066.691h-32.197c0.369-3.179,1.489-6.169,3.359-8.971
						c1.871-2.801,5.379-6.108,10.526-9.92c3.144-2.336,5.155-4.11,6.034-5.322c0.878-1.212,1.317-2.362,1.317-3.452
						c0-1.177-0.435-2.182-1.304-3.017c-0.87-0.834-1.963-1.251-3.28-1.251c-1.37,0-2.49,0.431-3.359,1.291
						c-0.87,0.861-1.453,2.38-1.752,4.558l-10.75-0.869c0.422-3.021,1.194-5.379,2.319-7.074c1.124-1.695,2.709-2.995,4.756-3.9
						c2.046-0.904,4.878-1.357,8.497-1.357c3.776,0,6.714,0.431,8.813,1.291c2.099,0.861,3.75,2.183,4.953,3.965
						c1.203,1.783,1.805,3.781,1.805,5.994c0,2.354-0.689,4.602-2.068,6.745c-1.379,2.143-3.886,4.497-7.522,7.061
						c-2.161,1.493-3.606,2.538-4.334,3.135c-0.729,0.597-1.585,1.379-2.569,2.345h16.757V1066.691z"/>
				</g>
			</g>
			<ellipse style="fill:#FFFFFF;" cx="1607.517" cy="883.545" rx="63.837" ry="27.545"/>
			<path style="fill:#E2A98D;" d="M1641.73,824.739h-71.106v44.842h0.247c0,0.007-0.001,0.015-0.001,0.022
				c0,9.878,15.815,17.885,35.324,17.885c19.509,0,35.324-8.007,35.324-17.885c0-0.007-0.001-0.015-0.001-0.022h0.214V824.739z"/>
			<path style="fill:#F1BF9E;" d="M1475.081,644.202c-4.891,6.521-8.758,13.662-11.283,21.439
				c-9.134,28.126-13.53,58.376-9.945,87.868c9.107,74.909,75.843,98.938,142.93,102.736
				c52.826,2.991,115.735-17.241,142.378-65.793c11.699-21.319,15.487-45.906,14.818-69.977
				c-1.65-59.37-18.031-100.669-78.279-119.619c-30.993-9.748-64.047-13.569-96.334-9.18
				C1544.01,596.483,1498.152,613.442,1475.081,644.202z"/>
			<path style="fill:#A3652A;" d="M1821.547,680.416c0-12.248-6.569-22.958-16.374-28.811c3.51-4.01,5.643-9.259,5.643-15.008
				c0-9.809-6.194-18.17-14.883-21.389c-25.524-98.163-147.219-117.865-147.219-117.865
				c-67.555-10.433-113.445,4.703-144.616,30.494c-3.505-2.197-7.647-3.471-12.089-3.471c-12.594,0-22.804,10.21-22.804,22.804
				c0,0.888,0.056,1.762,0.155,2.623c-4.266-1.966-9.011-3.07-14.016-3.07c-18.521,0-33.535,15.014-33.535,33.535
				c0,7.927,2.757,15.206,7.355,20.946c-18.961,7.427-32.395,25.872-32.395,47.466c0,28.152,22.822,50.973,50.973,50.973
				c23.482,0,43.243-15.883,49.157-37.488c3.997,1.681,8.387,2.612,12.995,2.612c16.977,0,30.999-12.619,33.22-28.987
				c5.709,10.349,16.724,17.362,29.379,17.362c15.611,0,28.729-10.667,32.467-25.109c3.352,8.422,11.573,14.378,21.19,14.378
				c7.002,0,13.265-3.159,17.448-8.127c0.199,18.35,15.129,33.166,33.526,33.166c0.15,0,0.298-0.009,0.447-0.011
				c0,0.004,0,0.007,0,0.011c0,24.201,19.618,43.819,43.819,43.819c4.839,0,9.488-0.797,13.838-2.248
				c1.398,0.777,2.517,1.268,3.217,1.546c0.391,0.732,0.809,1.448,1.274,2.13c8.539,31.549,30.165,33.357,37.563,33.007
				c1.447,0.288,2.941,0.441,4.473,0.441c12.594,0,22.804-10.21,22.804-22.804c0-4.424-1.263-8.55-3.444-12.046
				C1813.124,706.192,1821.547,694.288,1821.547,680.416z"/>
			<circle style="fill:#F1BF9E;" cx="1750.817" cy="745.453" r="39.717"/>
			<g>
				<path style="fill:#4A3218;" d="M1514.475,737.463c0.402,2.786,0.603,5.622,2.064,8.161c3.17,5.51,9.424,6.177,13.664,1.425
					c5.159-5.782,4.083-18.313-1.993-23.212c-3.237-2.61-6.921-2.414-10.203,0.602
					C1514.106,728.023,1513.615,732.564,1514.475,737.463z"/>
				<path style="fill:#4A3218;" d="M1648.831,738.16c0.205,2.566,0.912,5.295,2.563,7.669c3.555,5.113,10.071,5.201,13.769,0.237
					c3.907-5.245,3.801-14.951-0.222-20.231c-4.159-5.458-11.113-4.988-14.302,1.064
					C1648.839,730.31,1648.33,734.029,1648.831,738.16z"/>
				<circle style="opacity:0.25;fill:#FF7D7D;" cx="1684.922" cy="780.825" r="25.406"/>
				<circle style="opacity:0.25;fill:#FF7D7D;" cx="1495.155" cy="776.678" r="25.406"/>
				<path style="fill:#4A3218;" d="M1568.54,775.051c0.565,5.763,2.421,11.036,5.864,15.775
					c5.686,7.825,13.514,10.664,22.816,10.138c4.286-0.243,8.423-1.358,12.414-2.95c3.125-1.247,5.885-3.081,8.176-5.538
					c5.829-6.25,9.211-13.593,9.729-22.188c0.064-1.057-0.071-2.079-0.246-3.109c-0.326-1.923-1.273-3.265-3.179-4.003
					c-1.238-0.479-2.438-1.016-3.751-1.274c-12.065-2.368-24.243-3.113-36.5-2.346c-4.642,0.29-9.234,1.058-13.55,2.978
					c-2.781,1.237-3.483,2.214-3.108,5.247C1567.508,770.221,1568.085,772.628,1568.54,775.051z"/>
				<path style="fill:#F15A23;" d="M1613.75,792.382c1.993-0.896,2.293-3.601,0.568-4.944c-7.381-5.745-15.535-8.465-24.532-9.161
					c-2.254-0.174-4.532-0.069-6.798-0.031c-1.757,0.03-3.426,0.532-5.041,1.195c-5.669,2.33-5.959,3.618-2.131,8.318
					c3.618,4.442,8.203,7.158,13.826,8.139C1598.075,797.37,1605.92,795.903,1613.75,792.382z"/>
			</g>
		</g>
		<g>
			<path style="fill:#F1BF9E;" d="M703.86,938.885c-0.89-3.472-7.612-4.991-16.954-4.401c12.893-7.461,20.652-17.288,17.792-23.302
				c-2.669-5.612-13.748-6.145-26.531-1.892c10.96-12.677,15.532-26.452,10.19-31.333c-5.479-5.006-19.338,1.216-31.182,13.907
				c3.968-11.227,3.748-20.836-1.238-23.632c-6.573-3.687-18.934,5.863-27.609,21.329c-1.941,3.462-3.531,6.925-4.759,10.26
				c-5.068-8.404-13.413-12.737-19.605-9.793c-6.806,3.237-8.434,14.04-3.636,24.129c1.574,3.31,3.646,6.128,5.958,8.312
				c-6.178,14.381-2.563,31.49,9.943,41.626c15.133,12.266,37.56,9.681,50.131-5.761c2.844-0.46,5.818-1.075,8.862-1.855
				C692.401,952.077,705.222,944.2,703.86,938.885z"/>
			<polygon style="fill:#F1BF9E;" points="605.873,943 591.521,953.824 622.718,986.93 640.489,971.767 			"/>
			<path style="fill:#F1BF9E;" d="M86.959,954.343c0.366-3.565,6.79-6.062,16.116-6.862c-13.855-5.47-22.984-14.04-21.045-20.412
				c1.809-5.945,12.687-8.113,25.958-5.799c-12.715-10.915-19.276-23.861-14.716-29.479c4.677-5.762,19.305-1.66,32.898,9.138
				c-5.586-10.516-6.791-20.052-2.274-23.555c5.955-4.619,19.593,2.995,30.462,17.008c2.432,3.136,4.517,6.326,6.226,9.442
				c3.769-9.061,11.379-14.583,17.939-12.587c7.21,2.194,10.419,12.636,7.167,23.325c-1.067,3.507-2.699,6.6-4.662,9.102
				c8.239,13.308,7.196,30.763-3.672,42.639c-13.151,14.37-35.713,15.135-50.432,1.723c-2.881-0.034-5.913-0.202-9.039-0.523
				C100.245,965.694,86.399,959.802,86.959,954.343z"/>
			<polygon style="fill:#F1BF9E;" points="185.932,948.838 200.283,959.661 169.087,992.768 151.316,977.605 			"/>
			<path style="fill:#FEB8AE;" d="M468.315,1023.667c0,0,41.043,9.762,67.917,22.188l-19.486,174.181
				c0,0-137.404,16.25-211.777-9.185l-14.05-171.649c0,0,36.547-11.997,67.917-15.535H468.315z"/>
			<path style="fill:#FF8482;" d="M501.379,1033.53l22.682,97.643c1.533,6.6,1.902,13.366,1.095,20.063l-8.373,69.457h-212.04
				l-4.519-66.829l24.094-42.19c5.196-9.098,7.889-19.134,7.865-29.306l-0.129-53.495l28.525-5.525l4.929,36.323
				c0.612,4.511,5.093,12.931,10.142,13.98c13.115,2.727,40.416,7.088,84.451,1.919c6.424-0.754,11.536-11.005,11.357-16.678
				l-1.076-34.271L501.379,1033.53z"/>
			<polygon style="fill:#F1BF9E;" points="484,1203.001 584.919,1564.647 522,1589 394,1242 			"/>
			<path style="fill:#F1BF9E;" d="M319.703,1262.86l-17.313,170.965c-0.963,9.509-7.877,17.347-17.191,19.49l-43.662,10.044
				c0,0,23.427,67.539,23.463,67.641c1.453,3.97,70.615-21.094,75-23c14.918-6.487,31.245-13.492,40.741-27.387
				c19.293-28.23,17.984-71.949,14.191-104.307c-3.08-26.277-0.798-52.975-3.932-79.306c-3.44-28.898,0.44-5.102-3-34
				L319.703,1262.86z"/>
			<polyline style="fill:#FEB8AE;" points="524.981,1143.02 637.669,987.038 591.83,941.198 503.334,1035.424 			"/>
			<polygon style="fill:#FEB8AE;" points="301.231,1123.125 156.99,994.041 195.827,948.838 331.436,1029.057 			"/>
			<path style="fill:#FF8482;" d="M525.073,1143.177l-224.741,10.823l-65.567,257.847c245.124,31.832,356.756-6.055,356.756-6.055
				l-0.273-0.072c0.132,0.023,0.233,0.047,0.273,0.072C594.94,1408.012,525.073,1143.177,525.073,1143.177z"/>
			<polygon style="fill:#80B7CC;" points="499,1525 568,1504 585,1565 522,1589 			"/>
			<path style="fill:#4A3218;" d="M586.448,1562.883c0,0,29.303-5.85,36.552,9.117c4.861,10.036-12.02,25.136-20.207,31.083
				c-10.731,7.795-22.963,13.359-35.543,17.439c-11.279,3.657-25.808,9.75-37.986,6.707c-6.588-1.646-10.093-5.617-11.327-12.256
				c-1.097-5.906-3.646-25.104,3.512-27.782C521.456,1587.187,586.448,1562.883,586.448,1562.883z"/>
			<polygon style="fill:#80B7CC;" points="272,1456 301,1523 265,1531 241.537,1463.359 			"/>
			<path style="fill:#4A3218;" d="M274.242,1529.451c0,0,6.186,29.234-8.697,36.654c-9.979,4.976-25.272-11.731-31.313-19.849
				c-7.917-10.641-13.622-22.808-17.845-35.341c-3.786-11.236-10.046-25.695-7.142-37.906c1.571-6.606,5.501-10.157,12.126-11.467
				c5.893-1.165,25.061-3.933,27.821,3.193C249.194,1464.743,274.242,1529.451,274.242,1529.451z"/>
			<path style="fill:#F46C6C;" d="M346.3,1185h143.183c0,0,17.319,98.298-71.591,98.297
				C417.892,1283.297,340.601,1298.732,346.3,1185z"/>
			<path style="fill:#EFE574;" d="M402.969,1150.951c-7.172-13.946-38.146-129.842-38.146-129.842s-9.395-1.72-15.21,3.588
				l40.06,132.482"/>
			<path style="fill:#EFE574;" d="M423.612,1150.951c7.172-13.946,38.146-129.842,38.146-129.842s9.395-1.72,15.21,3.588
				l-40.06,132.482"/>
			<g>
				<circle style="fill:#EA5C15;" cx="413.518" cy="1181.002" r="44.002"/>
				<circle style="fill:#FF8B3E;" cx="411.301" cy="1180.114" r="42.938"/>
				<g>
					<path style="fill:#EFE574;" d="M447.459,1180.33c-0.016,7.491-2.315,14.744-6.694,20.904
						c-4.103,5.771-10.183,10.419-16.842,12.845c-7.173,2.613-14.942,2.902-22.237,0.834c-7.035-1.995-13.275-6.108-17.977-11.796
						c-4.587-5.55-7.491-12.764-8.031-19.957c-0.566-7.551,1.183-15.007,5.087-21.45c3.767-6.215,9.348-11.156,16.042-14.193
						c6.685-3.033,14.594-3.896,21.805-2.432c7.258,1.473,13.806,5.1,18.9,10.425c2.524,2.638,4.56,5.534,6.225,8.869
						c1.601,3.207,2.74,6.806,3.317,10.484C447.314,1176.512,447.455,1178.496,447.459,1180.33c0.004,1.782,2.774,1.786,2.77,0
						c-0.017-7.967-2.481-15.871-7.116-22.364c-4.574-6.407-10.986-11.319-18.381-14.03c-7.566-2.774-16.034-3.056-23.783-0.86
						c-7.487,2.122-14.3,6.557-19.247,12.567c-5.091,6.185-8.172,13.787-8.788,21.777c-0.615,7.97,1.316,16.091,5.459,22.928
						c4.014,6.624,10.039,12.03,17.105,15.219c7.463,3.368,15.842,4.309,23.87,2.68c7.634-1.55,14.741-5.512,20.122-11.137
						c5.419-5.665,9.094-12.973,10.278-20.732c0.306-2.004,0.475-4.021,0.479-6.048
						C450.233,1178.547,447.463,1178.544,447.459,1180.33z"/>
				</g>
				<g>
					<path style="fill:#EA5C15;" d="M408.09,1172.611l-11.45-1.938c0.952-3.445,2.781-6.085,5.487-7.921
						c2.706-1.835,6.538-2.753,11.494-2.753c5.69,0,9.804,1.002,12.342,3.005c2.538,2.004,3.807,4.522,3.807,7.556
						c0,1.779-0.516,3.389-1.546,4.831c-1.031,1.442-2.587,2.706-4.669,3.792c1.685,0.393,2.974,0.852,3.866,1.376
						c1.447,0.843,2.572,1.952,3.375,3.328c0.803,1.376,1.204,3.019,1.204,4.929c0,2.397-0.665,4.696-1.993,6.896
						c-1.328,2.201-3.242,3.895-5.74,5.084s-5.78,1.784-9.844,1.784c-3.966,0-7.093-0.44-9.383-1.32
						c-2.29-0.88-4.174-2.167-5.65-3.862c-1.477-1.694-2.613-3.824-3.405-6.39l12.104-1.517c0.476,2.303,1.214,3.9,2.216,4.789
						c1.001,0.89,2.275,1.334,3.822,1.334c1.625,0,2.978-0.562,4.059-1.685c1.081-1.124,1.621-2.621,1.621-4.494
						c0-1.91-0.52-3.389-1.561-4.438c-1.041-1.048-2.453-1.573-4.238-1.573c-0.952,0-2.26,0.225-3.926,0.674l0.625-8.173
						c0.674,0.094,1.199,0.141,1.576,0.141c1.586,0,2.91-0.478,3.97-1.432c1.06-0.955,1.591-2.088,1.591-3.399
						c0-1.254-0.397-2.256-1.19-3.005c-0.793-0.749-1.884-1.123-3.271-1.123c-1.427,0-2.587,0.407-3.48,1.222
						C409.011,1169.142,408.406,1170.571,408.09,1172.611z"/>
				</g>
				<g>
					<path style="fill:#EFE574;" d="M404.59,1171.298l-11.45-1.938c0.952-3.445,2.781-6.085,5.487-7.921
						c2.706-1.835,6.538-2.753,11.494-2.753c5.69,0,9.804,1.002,12.342,3.005c2.538,2.004,3.807,4.522,3.807,7.556
						c0,1.779-0.516,3.39-1.546,4.831c-1.031,1.442-2.587,2.706-4.669,3.792c1.685,0.393,2.974,0.852,3.866,1.376
						c1.447,0.843,2.572,1.952,3.375,3.328c0.803,1.376,1.204,3.019,1.204,4.929c0,2.397-0.665,4.696-1.993,6.896
						c-1.328,2.201-3.242,3.895-5.74,5.084s-5.78,1.784-9.844,1.784c-3.966,0-7.093-0.44-9.383-1.32
						c-2.29-0.88-4.174-2.167-5.65-3.862c-1.477-1.694-2.613-3.824-3.405-6.39l12.104-1.517c0.476,2.303,1.214,3.9,2.216,4.789
						c1.001,0.89,2.275,1.334,3.822,1.334c1.625,0,2.978-0.562,4.059-1.685c1.081-1.123,1.621-2.621,1.621-4.494
						c0-1.91-0.52-3.389-1.561-4.438c-1.041-1.048-2.453-1.573-4.238-1.573c-0.952,0-2.26,0.225-3.926,0.674l0.625-8.174
						c0.674,0.094,1.199,0.141,1.576,0.141c1.586,0,2.909-0.478,3.97-1.432c1.06-0.955,1.591-2.088,1.591-3.399
						c0-1.254-0.397-2.256-1.19-3.005c-0.793-0.749-1.884-1.124-3.271-1.124c-1.427,0-2.587,0.407-3.479,1.222
						S404.907,1169.257,404.59,1171.298z"/>
				</g>
			</g>
			<g>
				<path style="fill:#A3652A;" d="M245.635,1064.145c0,0-9.342,4.294-19.962,66.924c0,0,18.229,14.838,44.935,13.089l4.678-37.724
					l2.953,40.061l19.12,0.553c0,0,9.453-61.219-16.221-84.684C281.139,1062.365,262.877,1040.036,245.635,1064.145z"/>
				<circle style="fill:#A3652A;" cx="298.998" cy="927.867" r="41.005"/>
				<circle style="fill:#A3652A;" cx="276.653" cy="976.523" r="35.756"/>
				<circle style="fill:#A3652A;" cx="270.509" cy="1024.743" r="30.449"/>
				<path style="fill:#80B7CC;" d="M284.34,1040.749c-6.482-0.861-12.574,0.844-16.771,4.188c-3.179-4.323-8.615-7.558-15.097-8.419
					c-11.135-1.479-21.128,4.602-22.321,13.582c-1.192,8.98,6.868,17.458,18.003,18.937c6.482,0.861,12.574-0.844,16.771-4.188
					c3.179,4.323,8.615,7.558,15.097,8.419c11.135,1.479,21.128-4.602,22.321-13.582
					C303.535,1050.706,295.475,1042.228,284.34,1040.749z"/>
			</g>
			<path style="fill:#FFFFFF;" d="M364.565,1015.827l0.166,0.102c8.207-9.488,29.061-16.233,53.506-16.233
				c25.143,0,46.485,7.136,54.174,17.053l0.011-0.007c20.756,20.71,6.721,54.392,6.669,54.541
				c-20.037,56.607-60.369-20.285-60.843-21.192c-4.702,8.653-41.506,73.52-60.352,20.276
				C357.845,1070.219,343.81,1036.536,364.565,1015.827z"/>
			<path style="fill:#E2A98D;" d="M381.842,965.654h72.825v45.926h-0.253c0,0.008,0.001,0.015,0.001,0.023
				c0,10.117-16.197,18.318-36.178,18.318s-36.178-8.201-36.178-18.318c0-0.008,0.001-0.015,0.001-0.023h-0.219V965.654z"/>
			<g>
				<path style="fill:#A3652A;" d="M630.865,1069.814c0,0,9.69,3.435,25.907,64.855c0,0-16.819,16.419-43.574,17.082l-8.056-37.15
					l0.666,40.164l-18.992,2.273c0,0-14.927-60.119,8.53-85.8C595.346,1071.239,611.523,1047.356,630.865,1069.814z"/>
				<circle style="fill:#A3652A;" cx="565.448" cy="938.894" r="41.005"/>
				<circle style="fill:#A3652A;" cx="592.084" cy="985.341" r="35.756"/>
				<circle style="fill:#A3652A;" cx="602.545" cy="1032.811" r="30.449"/>
				<path style="fill:#80B7CC;" d="M590.211,1049.999c6.378-1.441,12.599-0.292,17.08,2.66c2.777-4.592,7.899-8.303,14.278-9.744
					c10.957-2.475,21.457,2.681,23.453,11.517c1.996,8.836-5.268,18.005-16.224,20.48c-6.378,1.441-12.599,0.292-17.08-2.66
					c-2.777,4.592-7.899,8.303-14.278,9.744c-10.957,2.475-21.457-2.681-23.453-11.517S579.255,1052.474,590.211,1049.999z"/>
			</g>
			<path style="fill:#F1BF9E;" d="M549.789,774.403c5.009,6.874,8.969,14.401,11.556,22.599
				c9.355,29.649,13.857,61.536,10.185,92.625c-9.327,78.964-77.676,104.294-146.385,108.297
				c-54.102,3.153-118.532-18.175-145.82-69.354c-11.982-22.473-15.862-48.391-15.176-73.766
				c1.69-62.583,18.467-106.118,80.171-126.094c31.742-10.276,65.595-14.304,98.663-9.676
				C479.193,724.102,526.16,741.978,549.789,774.403z"/>
			<path style="fill:#A3652A;" d="M569.438,843.754c0,0-16.867-5.249-24.253-27.555c0,0-32.9-97.756-128.241-99.068
				c0,0-69.273,3.172-156.476,108.253c0,0-5.966-234.629,216.254-200.309c0,0,224.234,36.288,134.264,254.107
				C610.984,879.183,579.59,885.088,569.438,843.754z"/>
			<path style="fill:#A3652A;" d="M576.088,815.715c0,0-58.437,27.224-119.453,9.632l-13.778-59.974l-6.561,62.373
				c0,0-14.434,7.997-30.836,3.998c0,0-17.524-62.968-4.498-104.652c0,0-45.379,12.41-59.806,102.112c0,0-51.167,8.138-80.608-3.857
				c0,0,3.197-169.527,175.747-156.733C436.297,668.614,545.954,684.535,576.088,815.715z"/>
			<circle style="fill:#F1BF9E;" cx="581.291" cy="879.183" r="40.677"/>
			<g>
				<path style="fill:#4C371C;" d="M487.453,885.223c-0.602,2.755-1.007,5.573-2.649,8.005c-3.563,5.277-9.859,5.493-13.753,0.441
					c-4.738-6.147-2.762-18.589,3.66-23.047c3.421-2.375,7.088-1.913,10.15,1.336C488.5,875.819,488.664,880.391,487.453,885.223z"
					/>
				<path style="fill:#4C371C;" d="M353.173,876.257c-0.389,2.549-1.292,5.224-3.112,7.477c-3.92,4.852-10.435,4.471-13.773-0.754
					c-3.526-5.521-2.722-15.21,1.677-20.195c4.548-5.154,11.461-4.184,14.212,2.091C353.73,868.414,353.971,872.165,353.173,876.257
					z"/>
				<circle style="opacity:0.25;fill:#FF7D7D;" cx="314.048" cy="916.286" r="25.447"/>
				<circle style="opacity:0.25;fill:#FF7D7D;" cx="503.934" cy="925.791" r="25.447"/>
				<path style="fill:#4C371C;" d="M430.735,918.887c-0.978,5.717-3.213,10.852-6.993,15.338
					c-6.243,7.408-14.269,9.682-23.523,8.487c-4.264-0.551-8.318-1.962-12.19-3.84c-3.032-1.47-5.658-3.502-7.77-6.121
					c-5.374-6.663-8.224-14.243-8.124-22.867c0.012-1.061,0.221-2.072,0.469-3.089c0.464-1.898,1.507-3.17,3.464-3.771
					c1.271-0.39,2.508-0.84,3.839-1.003c12.224-1.498,24.444-1.367,36.634,0.281c4.617,0.624,9.149,1.721,13.323,3.95
					c2.689,1.436,3.32,2.462,2.728,5.465C432.113,914.136,431.364,916.5,430.735,918.887z"/>
				<path style="fill:#EE5F2B;" d="M384.321,932.95c-1.927-1.039-2.031-3.763-0.212-4.98c7.788-5.209,16.129-7.339,25.168-7.388
					c2.264-0.012,4.533,0.257,6.794,0.458c1.754,0.156,3.384,0.777,4.95,1.557c5.496,2.735,5.693,4.044,1.531,8.464
					c-3.934,4.177-8.71,6.561-14.398,7.137C399.623,939.061,391.89,937.031,384.321,932.95z"/>
			</g>
		</g>
		<g>
			<polygon style="fill:#F1BF9E;" points="1086.027,938.114 1157.236,1306.763 1092.547,1325.924 993.156,969.674 			"/>
			<polygon style="fill:#EFE574;" points="1074.821,1260.267 1145.299,1244.942 1157.288,1307.121 1092.547,1325.924 			"/>
			<path style="fill:#4A3218;" d="M1158.903,1305.129c0,0,29.682-3.45,35.691,12.056c4.029,10.397-14.022,24.076-22.666,29.339
				c-11.329,6.897-23.972,11.45-36.842,14.494c-11.539,2.729-26.515,7.622-38.405,3.599c-6.432-2.176-9.604-6.418-10.294-13.136
				c-0.614-5.976-1.594-25.318,5.757-27.405C1092.152,1324.073,1158.903,1305.129,1158.903,1305.129z"/>
			<polygon style="fill:#F1BF9E;" points="933.724,942.328 863.554,1311.176 928.297,1330.156 1026.683,973.626 			"/>
			<polygon style="fill:#EFE574;" points="945.837,1264.449 875.317,1249.322 863.503,1311.535 928.297,1330.156 			"/>
			<path style="fill:#4A3218;" d="M861.882,1309.547c0,0-29.691-3.366-35.657,12.156c-4,10.409,14.09,24.037,22.748,29.275
				c11.348,6.865,24.004,11.382,36.883,14.39c11.546,2.696,26.536,7.547,38.415,3.491c6.426-2.194,9.586-6.445,10.257-13.165
				c0.597-5.977,1.523-25.322-5.835-27.389C928.686,1328.303,861.882,1309.547,861.882,1309.547z"/>
			<path style="fill:#FF8482;" d="M1151,1157c-2.11,3.29-4.54,6.26-7.22,8.93c-2.53,2.52-5.29,4.78-8.24,6.79
				c-37.31,25.6-104.07,13.19-104.07,13.19l-17.91-69.53c-2.81-10.89-13.24-10.1-15.29,1.16l-12.44,68.43
				c-32.37,21.56-81.5,3.67-106.32-7.96c-3.39-1.58-6.32-3.05-8.7-4.28c-4.33-2.25-6.81-3.73-6.81-3.73l27.89-202.06
				c4.01-1.77,8-3.43,11.97-4.98c4.33-1.69,8.63-3.26,12.91-4.7c74.38-25.14,141.31-14.65,175.29-5.88
				c1.34,0.35,2.64,0.69,3.87,1.03c12.57,3.44,19.67,6.36,19.67,6.36L1151,1157z"/>
			<path style="fill:#FFFFFF;" d="M916.77,958.26l-37.26,219.75c-3.39-1.58-6.32-3.05-8.7-4.28c4.62-30,27.61-179.02,33.05-210.77
				C908.19,961.27,912.49,959.7,916.77,958.26z"/>
			<path style="fill:#FFFFFF;" d="M1143.78,1165.93c-2.53,2.52-5.29,4.78-8.24,6.79l-43.48-220.34l-0.14-0.69l4.01,1.72l9.14,3.92
				C1105.95,958.17,1135.33,1119.48,1143.78,1165.93z"/>
			<polyline style="fill:#F1BF9E;" points="917.091,746.684 809.967,658.835 775.007,686.884 887.256,863.726 			"/>
			<polygon style="fill:#F1BF9E;" points="1116.244,855.404 1264.015,692.196 1228.974,663.245 1080.084,741.455 			"/>
			<path style="fill:#80B7CC;" d="M1134.177,713.04l-36.45,16.88c-11.566,5.356-24.204,8.189-36.942,7.759
				c-2.945-0.099-6.429,0.114-10.483,0.859c0,0-5.867,31.719-48.032,24.902c0,0-40.494-5.992-43.855-24.401
				c0,0-7.682-1.011-17.168,0.301c-14.929,2.066-30.097-1.486-42.582-9.928l-15.008-10.147c0,0-36.35,50.746-34.503,119.24
				l32.393,41.808c3.678,4.747,5.326,10.759,4.582,16.718l-11.694,93.713c0,0,185.232,37.369,265.565-2.745l-18.419-102.227
				c-1.015-5.634,0.166-11.442,3.301-16.232L1171,814C1174.308,772.235,1134.177,713.04,1134.177,713.04z"/>
			
				<ellipse transform="matrix(1 -0.0014 0.0014 1 -1.0405 1.4225)" style="fill:#FFFFFF;" cx="1009.581" cy="739.554" rx="52.5" ry="25"/>
			<path style="fill:#F1BF9E;" d="M723.501,668.143c1.203-3.074,7.456-5.162,15.834-5.754c-10.799-4.867-16.685-12.361-13.408-17.84
				c3.058-5.113,13.136-6.87,24.203-4.733c-8.451-9.555-11.002-20.799-5.612-25.601c5.528-4.925,17.343-1.23,26.593,8.234
				c-2.297-9.136-0.994-17.38,3.835-20.357c6.367-3.925,16.444,2.791,22.509,15.001c1.357,2.733,2.396,5.508,3.124,8.216
				c5.548-7.782,13.59-12.468,18.85-10.677c5.781,1.969,6.011,11.017,0.514,20.209c-1.804,3.016-4.001,5.669-6.342,7.808
				c3.933,11.574-1.301,26.631-13.773,36.768c-15.091,12.267-35.07,12.689-44.661,0.958c-2.519-0.06-5.136-0.237-7.798-0.546
				C732.345,678.081,721.659,672.849,723.501,668.143z"/>
			<path style="fill:#F1BF9E;" d="M1328.218,668.937c-0.37-3.559-6.787-6.043-16.099-6.828c13.825-5.48,22.926-14.049,20.982-20.408
				c-1.814-5.933-12.678-8.081-25.924-5.753c12.679-10.915,19.211-23.849,14.651-29.452c-4.677-5.746-19.275-1.63-32.831,9.17
				c5.562-10.506,6.751-20.028,2.237-23.519c-5.952-4.603-19.557,3.018-30.388,17.022c-2.424,3.134-4.501,6.322-6.202,9.435
				c-3.775-9.041-11.381-14.543-17.927-12.541c-7.195,2.2-10.384,12.63-7.123,23.297c1.07,3.5,2.704,6.586,4.667,9.081
				c-8.207,13.297-7.141,30.723,3.726,42.564c13.15,14.328,35.676,15.06,50.351,1.65c2.876-0.038,5.903-0.21,9.023-0.535
				C1314.97,680.288,1328.785,674.385,1328.218,668.937z"/>
			<path style="fill:#E2A98D;" d="M1045.386,680.233l-71.883,0.101l0.069,49.277l0.25,0c0,0.008-0.001,0.016-0.001,0.024
				c0.015,10.855,16.016,19.632,35.737,19.604c19.722-0.028,35.697-8.85,35.682-19.705c0-0.008-0.001-0.016-0.001-0.024l0.217,0
				L1045.386,680.233z"/>
			<path style="fill:#A3652A;" d="M1158.394,350.793c-2.371-4.307-15.532-3.671-29.396,1.421c-1.088,0.399-2.145,0.816-3.174,1.244
				c0.205-0.805,0.398-1.626,0.577-2.461c2.852-13.337,1.024-25.196-4.083-26.487c-5.107-1.291-11.558,8.473-14.409,21.81
				c-1.828,8.549-1.73,16.486-0.082,21.426c-0.005,0.528,0.108,1.026,0.361,1.486c0.161,0.293,0.377,0.562,0.635,0.809
				c0.841,1.477,1.904,2.446,3.168,2.766c1.159,0.293,2.388,0.011,3.628-0.748c5.631,0.247,13.671-1.203,21.965-4.249
				C1151.448,362.72,1160.765,355.1,1158.394,350.793z"/>
			<path style="fill:#F1BF9E;" d="M869.624,489.917c-4.934,7.173-8.832,15.026-11.373,23.575
				c-9.19,30.921-13.588,64.168-9.918,96.573c9.322,82.305,76.825,108.615,144.651,112.694
				c53.407,3.211,116.973-19.111,143.832-72.502c11.794-23.444,15.586-50.469,14.872-76.92
				c-1.76-65.239-18.384-110.6-79.319-131.338c-31.347-10.668-64.768-14.82-97.401-9.95
				C939.232,437.381,892.899,456.082,869.624,489.917z"/>
			<path style="fill:#A3652A;" d="M1136.775,562.793c0,0-16.657-5.608-23.981-29.532c0,0-29.063-75.888-123.174-77.163
				c0,0-71.262-24.205-157.179,88.666c0,0-6.913-252.993,212.485-216.478c0,0,221.389,38.625,132.911,272.463
				C1177.838,600.749,1146.859,607.128,1136.775,562.793z"/>
			
				<ellipse transform="matrix(1 -0.0014 0.0014 1 -0.8449 1.618)" style="fill:#F1BF9E;" cx="1148.529" cy="600.79" rx="40.151" ry="43.645"/>
			<path style="fill:#A3652A;" d="M832.442,544.764c0,0,89.589,18.546,139.258,2.752l11.641-57.014l10.026,57.966
				c0,0,23.518,8.811,45.204,0.919l4.754-26.977l6.097,28.927c0,0,32.59,5.458,66.905-9.135c0,0-0.48-107.888-141.359-110.154
				C974.967,432.049,839.477,405.208,832.442,544.764z"/>
			<g>
				<g>
					<path style="fill:#DDD054;" d="M849.447,585.247l-0.294-10.256c26.718-0.041,49.222-9.203,66.885-27.233
						c18.493-18.876,25.018-40.537,26.965-48.974c0.82-3.554,0.105-7.22-2.014-10.322c-2.109-3.087-5.348-5.228-9.12-6.029
						l-28.929-6.138l2.123-10.004l28.929,6.138c6.651,1.411,12.362,5.186,16.08,10.629c3.728,5.458,4.988,11.904,3.546,18.151
						c-2.131,9.236-9.275,32.95-29.521,53.615c-9.069,9.257-19.517,16.53-31.056,21.616
						C879.841,582.261,865.174,585.223,849.447,585.247z"/>
				</g>
				<g>
					<path style="fill:#DDD054;" d="M750.373,564.226l4.433-9.253c-24.4-10.887-41.244-28.398-50.064-52.047
						c-9.234-24.759-6.401-47.204-4.754-55.704c0.694-3.581,2.836-6.64,6.032-8.615c3.181-1.965,7.01-2.606,10.783-1.806
						l28.929,6.138l2.123-10.004l-28.929-6.138c-6.651-1.411-13.402-0.28-19.011,3.184c-5.624,3.474-9.392,8.853-10.611,15.148
						c-1.803,9.306-4.904,33.877,5.205,60.983c4.528,12.142,11.123,23.031,19.603,32.365
						C723.81,549.155,736.01,557.818,750.373,564.226z"/>
				</g>
				
					<rect x="773.828" y="600.852" transform="matrix(0.9782 0.2076 -0.2076 0.9782 151.5746 -149.3116)" style="fill:#EFE574;" width="27.002" height="93.637"/>
				
					<ellipse transform="matrix(0.2076 -0.9782 0.9782 0.2076 55.0592 1250.4081)" style="fill:#DDD054;" cx="799.307" cy="591.22" rx="18.292" ry="26.567"/>
				<path style="fill:#EFE574;" d="M918.516,455.345l-172.971-36.701c-9.647-2.047-15.808-11.527-13.761-21.174v0
					c2.047-9.647,11.527-15.808,21.174-13.761l172.971,36.701c9.647,2.047,15.808,11.527,13.761,21.174l0,0
					C937.642,451.231,928.163,457.392,918.516,455.345z"/>
				<path style="fill:#EFE574;" d="M798.475,594.16L798.475,594.16c-48.361-10.261-79.247-57.784-68.986-106.144l14.867-70.069
					L919.458,455.1l-14.873,70.098C894.327,573.542,846.82,604.418,798.475,594.16z"/>
				<path style="fill:#EFE574;" d="M824.978,726.226l-106.083-22.509v0c4.643-21.882,26.146-35.858,48.028-31.215l26.841,5.695
					C815.646,682.84,829.621,704.343,824.978,726.226L824.978,726.226z"/>
				
					<rect x="702.329" y="713.951" transform="matrix(0.9782 0.2076 -0.2076 0.9782 172.8038 -141.9966)" style="fill:#975C25;" width="121.511" height="77.087"/>
				
					<rect x="679.578" y="784.452" transform="matrix(0.9782 0.2076 -0.2076 0.9782 181.2335 -139.2627)" style="fill:#4A3218;" width="149.384" height="19.163"/>
				
					<rect x="720.616" y="731.599" transform="matrix(0.9782 0.2076 -0.2076 0.9782 172.8178 -142.0398)" style="fill:#FF8B3E;" width="85.362" height="41.883"/>
				<path style="fill:#FF8B3E;" d="M830.353,463.676l4.384,17.215c0.373,1.464,1.442,2.65,2.859,3.173l16.667,6.148
					c3.569,1.316,4.079,6.153,0.863,8.185l-15.018,9.49c-1.277,0.807-2.075,2.19-2.134,3.699l-0.697,17.751
					c-0.149,3.801-4.592,5.781-7.518,3.35l-13.666-11.35c-1.162-0.965-2.724-1.297-4.178-0.886l-17.098,4.823
					c-3.661,1.033-6.916-2.581-5.509-6.114l6.572-16.505c0.559-1.403,0.391-2.992-0.448-4.247l-9.87-14.77
					c-2.113-3.162,0.317-7.375,4.113-7.129l17.728,1.15c1.507,0.098,2.966-0.552,3.901-1.739l10.997-13.952
					C824.656,458.981,829.414,459.99,830.353,463.676z"/>
				<polygon style="fill:#DDD054;" points="744.356,417.947 919.458,455.1 916.838,465.281 742.176,428.221 				"/>
			</g>
			<g>
				<path style="fill:#4A3218;" d="M916.589,605.942c0.402,2.786,0.603,5.622,2.064,8.161c3.17,5.511,9.424,6.177,13.664,1.425
					c5.159-5.782,4.083-18.313-1.992-23.212c-3.237-2.61-6.921-2.414-10.203,0.602C916.221,596.502,915.73,601.043,916.589,605.942z
					"/>
				<path style="fill:#4A3218;" d="M1050.945,606.639c0.204,2.566,0.912,5.295,2.562,7.669c3.555,5.113,10.071,5.201,13.769,0.237
					c3.907-5.245,3.801-14.951-0.222-20.231c-4.159-5.459-11.113-4.988-14.302,1.064
					C1050.954,598.789,1050.444,602.508,1050.945,606.639z"/>
				<circle style="opacity:0.25;fill:#FF7D7D;" cx="1087.036" cy="649.304" r="25.406"/>
				<circle style="opacity:0.25;fill:#FF7D7D;" cx="897.269" cy="645.157" r="25.406"/>
				<path style="fill:#4A3218;" d="M970.654,643.53c0.565,5.763,2.421,11.036,5.864,15.775c5.686,7.825,13.514,10.664,22.816,10.138
					c4.286-0.243,8.423-1.358,12.414-2.95c3.125-1.247,5.885-3.081,8.176-5.538c5.829-6.25,9.211-13.593,9.729-22.188
					c0.064-1.057-0.071-2.079-0.246-3.109c-0.326-1.923-1.273-3.265-3.179-4.003c-1.238-0.479-2.438-1.016-3.751-1.274
					c-12.065-2.368-24.243-3.113-36.5-2.346c-4.642,0.29-9.234,1.058-13.55,2.978c-2.781,1.237-3.483,2.214-3.108,5.247
					C969.623,638.699,970.199,641.107,970.654,643.53z"/>
				<path style="fill:#F15A23;" d="M1015.865,660.86c1.993-0.896,2.293-3.601,0.568-4.944c-7.381-5.745-15.535-8.465-24.532-9.161
					c-2.254-0.174-4.532-0.069-6.798-0.031c-1.757,0.029-3.426,0.531-5.041,1.195c-5.669,2.33-5.959,3.618-2.131,8.319
					c3.618,4.442,8.203,7.158,13.826,8.139C1000.189,665.849,1008.035,664.381,1015.865,660.86z"/>
			</g>
		</g>
		<path style="fill:#FFFFFF;" d="M1028.898,824h69.823c0,0,8.241,71.921-34.912,71.666C1063.81,895.666,1027.6,902.265,1028.898,824
			z"/>
		<path style="fill:#EFE574;" d="M1003.969,862.951c-7.172-13.946-38.146-129.842-38.146-129.842s-9.395-1.72-15.21,3.588
			l40.06,132.482"/>
		<path style="fill:#EFE574;" d="M1024.612,862.951c7.172-13.946,38.147-129.842,38.147-129.842s9.395-1.72,15.21,3.588
			l-40.06,132.482"/>
		<g>
			<circle style="fill:#EA5C15;" cx="1010.518" cy="891.002" r="44.002"/>
			<circle style="fill:#FF8B3E;" cx="1008.301" cy="890.114" r="42.938"/>
			<g>
				<path style="fill:#EA5C15;" d="M1018.452,866.567v46.714h-12.908v-30.61c-2.089,1.588-4.11,2.872-6.063,3.854
					c-1.953,0.982-4.402,1.922-7.347,2.82V878.88c4.345-1.399,7.718-3.081,10.12-5.044c2.402-1.963,4.282-4.386,5.64-7.269H1018.452
					z"/>
			</g>
			<g>
				<path style="fill:#EFE574;" d="M1044.459,890.33c-0.016,7.491-2.315,14.744-6.693,20.904
					c-4.103,5.771-10.182,10.419-16.842,12.845c-7.173,2.613-14.942,2.902-22.237,0.833c-7.035-1.995-13.275-6.107-17.977-11.796
					c-4.588-5.55-7.491-12.764-8.031-19.957c-0.566-7.551,1.183-15.007,5.087-21.45c3.767-6.215,9.348-11.157,16.042-14.194
					c6.685-3.033,14.594-3.896,21.805-2.432c7.258,1.473,13.806,5.1,18.9,10.425c2.524,2.638,4.56,5.534,6.225,8.869
					c1.601,3.207,2.74,6.806,3.317,10.484C1044.314,886.512,1044.455,888.496,1044.459,890.33c0.004,1.782,2.774,1.786,2.77,0
					c-0.017-7.967-2.481-15.871-7.116-22.364c-4.574-6.407-10.986-11.319-18.381-14.03c-7.566-2.774-16.034-3.056-23.783-0.86
					c-7.487,2.122-14.3,6.557-19.247,12.567c-5.091,6.185-8.172,13.787-8.788,21.777c-0.615,7.97,1.316,16.091,5.459,22.928
					c4.014,6.624,10.039,12.03,17.105,15.219c7.463,3.368,15.842,4.309,23.87,2.68c7.634-1.549,14.741-5.512,20.122-11.137
					c5.419-5.665,9.094-12.973,10.278-20.732c0.306-2.004,0.474-4.021,0.479-6.048
					C1047.233,888.547,1044.463,888.544,1044.459,890.33z"/>
			</g>
			<g>
				<path style="fill:#EFE574;" d="M1015.554,863.918v46.714h-12.908v-30.61c-2.089,1.588-4.11,2.872-6.063,3.854
					c-1.953,0.982-4.402,1.922-7.347,2.82v-10.465c4.345-1.399,7.718-3.081,10.12-5.044c2.402-1.963,4.282-4.386,5.64-7.269
					H1015.554z"/>
			</g>
		</g>
		<path style="fill:#E0D7C6;" d="M618.004,239.796l17.836,12.809c1.613,1.159,3.693,1.449,5.562,0.777l20.664-7.432
			c4.706-1.693,9.311,2.746,7.791,7.511l-6.67,20.922c-0.603,1.892-0.237,3.96,0.98,5.53l13.453,17.356
			c3.064,3.953,0.265,9.704-4.736,9.731l-21.959,0.121c-1.986,0.011-3.84,0.999-4.957,2.641L633.62,327.92
			c-2.813,4.136-9.147,3.251-10.719-1.497L616,305.576c-0.624-1.885-2.136-3.343-4.043-3.898l-21.085-6.133
			c-4.802-1.397-5.918-7.694-1.888-10.657l17.694-13.005c1.6-1.176,2.519-3.065,2.458-5.05l-0.682-21.949
			C608.297,239.885,613.942,236.878,618.004,239.796z"/>
		<path style="fill:#E0D7C6;" d="M849.63,222.667l2.989,11.736c0.27,1.061,1.046,1.922,2.073,2.301l11.363,4.191
			c2.588,0.955,2.958,4.462,0.626,5.936l-10.238,6.469c-0.926,0.585-1.505,1.588-1.548,2.683l-0.475,12.102
			c-0.108,2.756-3.33,4.192-5.452,2.43l-9.317-7.738c-0.843-0.7-1.976-0.94-3.03-0.643l-11.656,3.288
			c-2.655,0.749-5.016-1.872-3.996-4.434l4.48-11.252c0.405-1.018,0.284-2.17-0.325-3.08l-6.729-10.07
			c-1.533-2.293,0.23-5.349,2.983-5.17l12.086,0.784c1.093,0.071,2.151-0.401,2.829-1.261l7.497-9.511
			C845.499,219.262,848.949,219.994,849.63,222.667z"/>
		<path style="fill:#E0D7C6;" d="M1919.048,466.649l-7.209,20.742c-0.652,1.876-0.339,3.953,0.837,5.553l13,17.697
			c2.961,4.031,0.015,9.707-4.986,9.606l-21.955-0.446c-1.986-0.04-3.864,0.899-5.023,2.512l-12.814,17.833
			c-2.919,4.062-9.228,3.014-10.676-1.774l-6.36-21.018c-0.575-1.901-2.049-3.397-3.941-4.001l-20.92-6.676
			c-4.765-1.521-5.718-7.845-1.612-10.702l18.024-12.544c1.63-1.134,2.598-2.999,2.587-4.985l-0.115-21.959
			c-0.026-5.001,5.694-7.862,9.68-4.841l17.499,13.266c1.583,1.2,3.655,1.544,5.54,0.92l20.849-6.895
			C1916.201,457.369,1920.69,461.925,1919.048,466.649z"/>
		<path style="fill:#E0D7C6;" d="M1742.769,392.119l4.974,11.042c0.45,0.999,1.362,1.712,2.44,1.908l11.916,2.163
			c2.714,0.493,3.685,3.884,1.643,5.738l-8.965,8.143c-0.811,0.736-1.207,1.825-1.06,2.91l1.626,12.001
			c0.37,2.733-2.555,4.705-4.949,3.336l-10.515-6.01c-0.951-0.544-2.109-0.584-3.095-0.109l-10.912,5.255
			c-2.485,1.197-5.264-0.976-4.702-3.676l2.466-11.857c0.223-1.072-0.096-2.186-0.853-2.978l-8.369-8.754
			c-1.906-1.994-0.699-5.308,2.043-5.608l12.039-1.318c1.089-0.119,2.049-0.767,2.568-1.731l5.739-10.665
			C1738.111,389.48,1741.636,389.604,1742.769,392.119z"/>
		<path style="fill:#E0D7C6;" d="M156.113,557.523l10.046,6.763c0.909,0.612,2.06,0.737,3.079,0.335l11.267-4.442
			c2.566-1.012,5.179,1.358,4.421,4.011l-3.328,11.645c-0.301,1.053-0.064,2.187,0.633,3.032l7.706,9.343
			c1.755,2.128,0.308,5.345-2.448,5.444l-12.103,0.433c-1.095,0.039-2.1,0.615-2.688,1.539l-6.504,10.216
			c-1.481,2.327-4.988,1.945-5.934-0.646l-4.152-11.377c-0.376-1.029-1.233-1.807-2.294-2.081l-11.726-3.029
			c-2.671-0.69-3.391-4.143-1.219-5.843l9.537-7.465c0.863-0.675,1.338-1.732,1.271-2.825l-0.743-12.088
			C150.763,557.734,153.825,555.982,156.113,557.523z"/>
		<path style="fill:#E0D7C6;" d="M330.763,484.426l4.289,11.326c0.388,1.024,1.255,1.792,2.319,2.054l11.762,2.888
			c2.679,0.658,3.441,4.102,1.289,5.828l-9.447,7.579c-0.854,0.685-1.317,1.747-1.236,2.84l0.888,12.078
			c0.202,2.751-2.838,4.54-5.144,3.027l-10.127-6.642c-0.916-0.601-2.069-0.712-3.083-0.298l-11.213,4.577
			c-2.554,1.042-5.195-1.296-4.469-3.957l3.188-11.684c0.288-1.057,0.038-2.188-0.669-3.024l-7.818-9.25
			c-1.781-2.107-0.373-5.341,2.383-5.473l12.097-0.579c1.094-0.052,2.092-0.64,2.67-1.571l6.381-10.293
			C326.276,481.506,329.786,481.846,330.763,484.426z"/>
		<g>
			<path style="fill:#E0D7C6;" d="M329,621.647c0-8.674,0-17.349,0-26.023c0-13.72,0-27.44,0-41.161c0-3.154,0-6.308,0-9.463
				c0-3.861-6-3.867-6,0c0,8.674,0,17.349,0,26.023c0,13.72,0,27.44,0,41.161c0,3.154,0,6.308,0,9.463
				C323,625.507,329,625.514,329,621.647L329,621.647z"/>
		</g>
		<g>
			<path style="fill:#E0D7C6;" d="M240.174,663.704c-6.283-5.981-12.566-11.961-18.85-17.942
				c-9.938-9.459-19.876-18.919-29.814-28.378c-2.285-2.175-4.569-4.349-6.854-6.524c-2.796-2.662-6.938,1.68-4.137,4.346
				c6.283,5.981,12.566,11.961,18.85,17.942c9.938,9.459,19.876,18.919,29.814,28.378c2.285,2.175,4.569,4.349,6.854,6.524
				C238.833,670.712,242.975,666.371,240.174,663.704L240.174,663.704z"/>
		</g>
		<g>
			<path style="fill:#E0D7C6;" d="M834.382,363.042c1.04-8.612,2.081-17.224,3.121-25.836c1.646-13.621,3.291-27.242,4.937-40.863
				c0.378-3.131,0.757-6.263,1.135-9.394c0.463-3.833-5.493-4.559-5.957-0.72c-1.04,8.612-2.081,17.224-3.121,25.836
				c-1.646,13.621-3.291,27.242-4.937,40.863c-0.378,3.131-0.757,6.263-1.135,9.394
				C827.962,366.156,833.918,366.882,834.382,363.042L834.382,363.042z"/>
		</g>
		<g>
			<path style="fill:#E0D7C6;" d="M714.958,373.017c-6.283-5.981-12.566-11.961-18.85-17.942
				c-9.938-9.459-19.876-18.919-29.814-28.378c-2.285-2.175-4.569-4.349-6.854-6.524c-2.796-2.662-6.938,1.68-4.137,4.346
				c6.283,5.981,12.566,11.961,18.849,17.942c9.938,9.46,19.876,18.919,29.814,28.378c2.285,2.175,4.569,4.349,6.854,6.524
				C713.618,380.025,717.759,375.683,714.958,373.017L714.958,373.017z"/>
		</g>
		<g>
			<path style="fill:#E0D7C6;" d="M1819.531,555.986c3.407-3.619,6.814-7.237,10.222-10.856c5.389-5.723,10.778-11.447,16.168-17.17
				c1.239-1.316,2.478-2.631,3.717-3.947c1.516-1.61-2.849-5.726-4.368-4.113c-3.407,3.618-6.814,7.237-10.222,10.856
				c-5.389,5.723-10.778,11.447-16.167,17.17c-1.239,1.316-2.478,2.632-3.717,3.947
				C1813.646,553.483,1818.012,557.599,1819.531,555.986L1819.531,555.986z"/>
		</g>
		<g>
			<path style="fill:#E0D7C6;" d="M1741.761,492.277c0-5.249,0-10.498,0-15.747c0-8.302,0-16.605,0-24.907c0-1.909,0-3.817,0-5.726
				c0-2.336-6-2.34-6,0c0,5.249,0,10.498,0,15.747c0,8.302,0,16.605,0,24.907c0,1.909,0,3.817,0,5.726
				C1735.761,494.613,1741.761,494.617,1741.761,492.277L1741.761,492.277z"/>
		</g>
		<path style="fill:#E0D7C6;" d="M243.335,590.099c3.709-4.922,7.715-12.359,8.591-22.19c0.316-3.548,4.188-4.406,6.174-1.393
			c4.188,6.351,10.074,12.903,17.542,15.48c2.646,0.913,3.762,4.799,2.008,6.961c-6.052,7.458-5.616,17.851-9.675,26.213
			c-7.828-6.779-11.488-16.209-22.041-18.031C243.033,596.639,241.515,592.514,243.335,590.099z"/>
		<path style="fill:#E0D7C6;" d="M718.482,288.138c5.619-2.532,12.708-7.125,18.205-15.322c1.984-2.958,5.791-1.848,6.083,1.748
			c0.617,7.582,2.626,16.158,7.934,22.01c1.881,2.074,0.99,6.017-1.587,7.069c-8.893,3.628-13.51,12.95-21.09,18.329
			c-3.602-9.708-2.275-19.736-10.652-26.409C715.072,293.727,715.725,289.38,718.482,288.138z"/>
		<path style="fill:#E0D7C6;" d="M622.289,373.572c-1.02-3.199-3.063-7.323-7.157-10.81c-1.477-1.258-0.639-3.25,1.326-3.184
			c4.143,0.139,8.91-0.413,12.409-2.921c1.24-0.889,3.319-0.16,3.727,1.3c1.409,5.04,6.166,8.121,8.604,12.56
			c-5.48,1.344-10.825-0.001-14.96,4.117C625.102,375.766,622.79,375.142,622.289,373.572z"/>
		<path style="fill:#E0D7C6;" d="M898.409,289.987c3.348-0.257,7.831-1.297,12.167-4.479c1.564-1.148,3.309,0.125,2.793,2.023
			c-1.088,4-1.647,8.766-0.011,12.748c0.58,1.411-0.607,3.267-2.123,3.328c-5.229,0.212-9.321,4.133-14.202,5.485
			c-0.048-5.642,2.49-10.535-0.567-15.505C895.627,292.219,896.766,290.113,898.409,289.987z"/>
		<path style="fill:#E0D7C6;" d="M1796.187,458.799c3.062-1.379,6.924-3.882,9.919-8.349c1.081-1.612,3.155-1.007,3.315,0.953
			c0.336,4.131,1.431,8.804,4.323,11.992c1.025,1.13,0.54,3.279-0.865,3.851c-4.846,1.977-7.361,7.056-11.491,9.986
			c-1.963-5.29-1.24-10.754-5.804-14.389C1794.329,461.844,1794.684,459.476,1796.187,458.799z"/>
	</g>
</g>
</svg>
